<svg width="143" height="72" viewBox="0 0 143 72" fill="none" xmlns="http://www.w3.org/2000/svg">
<path d="M135.41 55.5684L87.8282 55.5685C86.2917 55.596 84.9222 57.7886 84.8544 58.2188C83.8631 60.133 81.5406 64.6683 80.1811 67.4954C78.9066 69.7042 80.8892 70.7349 82.3054 71.0293H132.436C137.194 71.0293 137.774 69.5908 137.959 68.8207C138.242 67.6427 139.149 64.2265 140.508 59.9859C141.984 55.1136 137.956 55.5684 135.41 55.5684Z" fill="#36C2D7"/>
<path d="M99.0202 64.1304C99.0748 63.768 98.8805 63.4988 98.4366 63.3226L98.1358 63.2094C97.5763 63.0106 97.1789 62.7753 96.9435 62.5035C96.708 62.2317 96.6015 61.9159 96.6239 61.5561C96.6436 61.244 96.7474 60.9697 96.9363 60.7332C97.127 60.4941 97.3767 60.3105 97.6864 60.182C97.9962 60.0537 98.3256 59.9933 98.6747 60.0009C99.0112 60.0084 99.3111 60.0839 99.5734 60.2273C99.8366 60.3683 100.037 60.5658 100.176 60.82C100.315 61.0717 100.379 61.3598 100.369 61.6844L99.4552 61.6806C99.4722 61.3937 99.4087 61.171 99.2655 61.0125C99.124 60.854 98.9101 60.7709 98.6227 60.7634C98.3327 60.7584 98.0875 60.8276 97.8869 60.971C97.6891 61.1144 97.5728 61.3081 97.5378 61.5522C97.4886 61.8718 97.699 62.1235 98.1689 62.3072L98.4482 62.4091C99.0148 62.6155 99.4114 62.8583 99.6369 63.1376C99.8625 63.4145 99.961 63.7428 99.9341 64.1228C99.9091 64.4323 99.8088 64.7028 99.6334 64.9344C99.457 65.1634 99.2135 65.3407 98.9011 65.4666C98.5914 65.5924 98.2495 65.6528 97.8762 65.6478C97.5217 65.6452 97.1995 65.5697 96.9104 65.4213C96.623 65.2728 96.4019 65.0677 96.2488 64.8061C96.0949 64.5418 96.0242 64.2424 96.0367 63.9077L96.9542 63.9114C96.9345 64.2234 97.0106 64.4638 97.1807 64.6324C97.3517 64.801 97.5969 64.8878 97.9165 64.8928C98.2137 64.8979 98.4616 64.8337 98.6594 64.7004C98.86 64.567 98.9808 64.377 99.0202 64.1304ZM103.751 63.1187H101.595L101.306 64.8098H103.825L103.695 65.5723H100.258L101.194 60.0764H104.609L104.475 60.8464H101.982L101.723 62.3639H103.881L103.751 63.1187ZM106.52 63.4547H105.487L105.123 65.5723H104.205L105.145 60.0764L106.85 60.0802C107.437 60.0802 107.887 60.2236 108.199 60.5105C108.511 60.7974 108.646 61.1962 108.604 61.707C108.577 62.0618 108.46 62.3701 108.254 62.6318C108.049 62.891 107.76 63.0949 107.389 63.2433L108.188 65.5156L108.184 65.5723H107.211L106.52 63.4547ZM105.613 62.6884L106.501 62.696C106.82 62.696 107.087 62.6117 107.3 62.4431C107.515 62.272 107.641 62.0404 107.679 61.7486C107.716 61.4642 107.666 61.2466 107.53 61.0955C107.394 60.9421 107.187 60.8602 106.91 60.8502L105.929 60.8464L105.613 62.6884ZM110.567 64.3681L112.558 60.0764H113.598L110.864 65.5723H109.976L108.939 60.0764H109.913L110.567 64.3681ZM114.023 65.5723H113.109L114.049 60.0764H114.963L114.023 65.5723ZM119.206 63.7794C119.115 64.353 118.862 64.8111 118.446 65.1533C118.029 65.493 117.523 65.6579 116.926 65.6478C116.582 65.6402 116.279 65.5572 116.019 65.3987C115.762 65.2401 115.56 65.0099 115.414 64.7079C115.268 64.4034 115.185 64.0599 115.168 63.6774C115.153 63.3906 115.188 63.0005 115.272 62.5073C115.356 62.0115 115.518 61.5673 115.756 61.1748C115.996 60.7823 116.289 60.4865 116.636 60.2878C116.986 60.089 117.373 59.9933 117.798 60.0009C118.336 60.011 118.761 60.1833 119.073 60.518C119.387 60.8502 119.555 61.3094 119.574 61.8957H118.665C118.652 61.5032 118.57 61.2201 118.42 61.0465C118.271 60.8703 118.049 60.7785 117.755 60.7709C117.351 60.7584 117.012 60.9055 116.74 61.2126C116.467 61.5196 116.285 61.9662 116.19 62.5526L116.116 63.0546L116.082 63.4396C116.063 63.6988 116.08 63.9429 116.134 64.1719C116.192 64.3983 116.29 64.572 116.432 64.6928C116.573 64.8111 116.752 64.874 116.97 64.8815C117.661 64.9092 118.105 64.5443 118.301 63.7869L119.206 63.7794ZM123.001 63.1187H120.846L120.556 64.8098H123.075L122.945 65.5723H119.509L120.445 60.0764H123.859L123.726 60.8464H121.233L120.973 62.3639H123.132L123.001 63.1187ZM126.446 64.1304C126.501 63.768 126.307 63.4988 125.863 63.3226L125.562 63.2094C125.002 63.0106 124.605 62.7753 124.37 62.5035C124.134 62.2317 124.028 61.9159 124.05 61.5561C124.07 61.244 124.174 60.9697 124.362 60.7332C124.553 60.4941 124.803 60.3105 125.113 60.182C125.422 60.0537 125.752 59.9933 126.101 60.0009C126.437 60.0084 126.737 60.0839 127 60.2273C127.263 60.3683 127.463 60.5658 127.602 60.82C127.741 61.0717 127.805 61.3598 127.795 61.6844L126.881 61.6806C126.898 61.3937 126.836 61.171 126.692 61.0125C126.55 60.854 126.336 60.7709 126.049 60.7634C125.759 60.7584 125.514 60.8276 125.313 60.971C125.115 61.1144 124.999 61.3081 124.964 61.5522C124.915 61.8718 125.125 62.1235 125.596 62.3072L125.874 62.4091C126.442 62.6155 126.837 62.8583 127.063 63.1376C127.289 63.4145 127.388 63.7428 127.36 64.1228C127.335 64.4323 127.235 64.7028 127.059 64.9344C126.883 65.1634 126.64 65.3407 126.327 65.4666C126.018 65.5924 125.676 65.6528 125.302 65.6478C124.948 65.6452 124.626 65.5697 124.336 65.4213C124.049 65.2728 123.828 65.0677 123.675 64.8061C123.521 64.5418 123.451 64.2424 123.463 63.9077L124.38 63.9114C124.361 64.2234 124.437 64.4638 124.608 64.6324C124.779 64.801 125.024 64.8878 125.343 64.8928C125.64 64.8979 125.888 64.8337 126.086 64.7004C126.287 64.567 126.407 64.377 126.446 64.1304Z" fill="white"/>
<path d="M46.1625 28.8665L46.3514 31.4457C47.9598 29.442 50.1347 28.4402 52.876 28.4402C55.7993 28.4402 57.8063 29.6125 58.8973 31.9572C60.4917 29.6125 62.7645 28.4402 65.7157 28.4402C68.1773 28.4402 70.0096 29.172 71.2124 30.6357C72.4152 32.0852 73.0166 34.2736 73.0166 37.201V51.9301H66.9325V37.2223C66.9325 35.9149 66.6808 34.9628 66.1772 34.366C65.6737 33.7549 64.7856 33.4494 63.5128 33.4494C61.6946 33.4494 60.4357 34.3304 59.7365 36.0925L59.7574 51.9301H53.6943V37.2435C53.6943 35.9078 53.4355 34.9415 52.918 34.3446C52.4005 33.7478 51.5194 33.4494 50.2746 33.4494C48.5542 33.4494 47.3095 34.1741 46.5402 35.6236V51.9301H40.4771V28.8665H46.1625ZM98.2952 26.0742H88.9378V51.9301H82.6438V26.0742H73.4127V20.8945H98.2952V26.0742ZM109.159 52.3564C105.831 52.3564 103.117 51.319 101.02 49.2443C98.9352 47.1696 97.8933 44.4056 97.8933 40.9525V40.3556C97.8933 38.0393 98.3346 35.9717 99.2154 34.1528C100.096 32.3197 101.341 30.9128 102.95 29.9323C104.572 28.9375 106.419 28.4402 108.488 28.4402C111.593 28.4402 114.034 29.4349 115.81 31.4244C117.601 33.4138 118.496 36.2347 118.496 39.8867V42.402H104.041C104.236 43.9083 104.824 45.1162 105.803 46.0256C106.796 46.9351 108.048 47.3898 109.559 47.3898C111.894 47.3898 113.719 46.5301 115.034 44.8107L118.013 48.1998C117.104 49.5072 115.873 50.5303 114.321 51.2693C112.769 51.994 111.048 52.3564 109.159 52.3564ZM108.468 33.428C107.264 33.428 106.285 33.8402 105.531 34.6644C104.789 35.4886 104.313 36.668 104.104 38.2028H112.538V37.7125C112.51 36.3483 112.146 35.2967 111.447 34.5578C110.747 33.8047 109.754 33.428 108.468 33.428ZM130.202 42.6791L128.021 44.8959V51.9301H121.957V19.1892H128.021V37.3288L129.195 35.7941L135.007 28.8665H142.287L134.084 38.4799L143 51.9301H136.035L130.202 42.6791Z" fill="#36C2D7"/>
<path d="M1 14.6419C1 12.0954 4.13298 11.9137 4.13298 12.3683C3.23784 12.3683 2.34271 13.7326 3.68541 14.6419C5.77406 15.8545 15.2842 21.1163 22.9309 25.5557C29.1968 29.1936 29.346 29.1934 29.1968 29.6482V57.387C29.1968 63.7532 28.7493 63.2985 28.3017 63.2985C27.9436 63.2985 9.5038 54.6586 1.44757 49.6565C1.44757 39.1976 1 17.1884 1 14.6419Z" fill="#36C2D7" stroke="#36C2D7" stroke-width="0.5"/>
<path d="M27.6304 1.25072L7.9373 11.7095C6.59456 12.619 6.147 13.0736 8.3849 14.438C10.026 15.3474 15.009 18.0758 21.812 21.7137C29.1042 25.6131 28.973 24.4421 28.9731 23.0779V3.52439C28.973 -0.113617 28.0779 1.25046 27.6304 1.25072Z" fill="#167F9F" stroke="#167F9F" stroke-width="0.5"/>
</svg>
